<?xml version="1.0" encoding="UTF-8"?>
<svg id="Layer_2" data-name="Layer 2" xmlns="http://www.w3.org/2000/svg" viewBox="0 0 595.28 595.28">
  <path d="M296.18,219.29v15.18l-12.95,25.9s-8.93,8.04-7.81,13.84,10.49,6.92,17.19,4.47c5.36,6.25,21.21,8.93,27.91-.67,5.13,1.56,14.51.67,16.07-4.02s-4.91-12.06-8.93-13.62c-1.34-6.25-7.81-21.21-9.6-24.78.22-4.69-.22-16.3-.22-16.3" fill="none" stroke="#231f20" stroke-miterlimit="10"/>
  <g>
    <path d="M350.06,302.84s-31.96-8.6-43.98-1.64c-11.54-7.99-41.32,5.34-41.32,5.34,0,0,7.72,24.32,35.76,26.7s45.76-23.36,49.55-30.4Z" fill="none" stroke="#231f20" stroke-miterlimit="10"/>
    <path d="M269.32,304.69c5.39-2.1,14.77-.41,23.79,0s7.58,1.84,12.97,1.84,4.95-1.37,12.02-2.66c9.52-1.75,28.04-.83,28.04-.83" fill="none" stroke="#231f20" stroke-miterlimit="10"/>
    <path d="M345.2,306.53s-21.49,15.48-40.85,15.13-30.02-5.15-36.06-11.01" fill="none" stroke="#231f20" stroke-miterlimit="10"/>
  </g>
  <g>
    <path d="M274.15,303.74v9.4s.68,1.27,2.43.96c1.57,1.84,2.38,2.74,4.88,1.84,2.38,2.23,3.38,2.47,5.88.35,3.38,2.13,4.13,2.8,7.51,1.47,3.5,2.29,11.22,1.67,11.22,1.67,0,0,7.31.38,10.06-1.13,3.02,1.07,6.76-.63,8.14-1.38.25-2.63,0-1.75,0-1.75,0,0,3.38,2.36,5.26-1.07,1.5-.31,3.75-.18,4.51-2.18,1.25-.38,2.71-1.75,2.8-2.25.33-1.5,0-6.86,0-6.86" fill="none" stroke="#231f20" stroke-miterlimit="10"/>
    <line x1="305.56" y1="309.97" x2="305.56" y2="319.5" fill="none" stroke="#231f20" stroke-miterlimit="10"/>
    <line x1="294.83" y1="317.21" x2="294.83" y2="309.65" fill="none" stroke="#231f20" stroke-miterlimit="10"/>
    <line x1="315.96" y1="318.38" x2="315.96" y2="309.1" fill="none" stroke="#231f20" stroke-miterlimit="10"/>
    <line x1="324.53" y1="315.32" x2="324.53" y2="308.79" fill="none" stroke="#231f20" stroke-miterlimit="10"/>
    <line x1="287.35" y1="316.29" x2="287.35" y2="309.65" fill="none" stroke="#231f20" stroke-miterlimit="10"/>
    <line x1="281.47" y1="315.94" x2="281.47" y2="308.08" fill="none" stroke="#231f20" stroke-miterlimit="10"/>
    <line x1="276.58" y1="314.1" x2="276.58" y2="307.26" fill="none" stroke="#231f20" stroke-miterlimit="10"/>
    <path d="M336.98,303.48s-1.83.25-2.94,2.04v6.39" fill="none" stroke="#231f20" stroke-miterlimit="10"/>
    <path d="M334.03,305.52s-3.56,1.38-4.3,3.27v5.95" fill="none" stroke="#231f20" stroke-miterlimit="10"/>
    <path d="M331.1,306.53v-3.73s-6.57,5.08-6.57,7.17" fill="none" stroke="#231f20" stroke-miterlimit="10"/>
    <path d="M324.97,308.79s-.96-4.28-3.17-4.12-5.84,5.3-5.84,5.3" fill="none" stroke="#231f20" stroke-miterlimit="10"/>
    <path d="M315.96,309.65s.09-4.1-1.93-4.13-6.96,1.16-8.47,4.45" fill="none" stroke="#231f20" stroke-miterlimit="10"/>
    <path d="M294.83,309.65s.73-4.05,2.81-4.13,7.93,3.33,7.93,6.01" fill="none" stroke="#231f20" stroke-miterlimit="10"/>
    <path d="M287.35,309.65s.6-3.34,2.52-3.27,4.05,2.15,4.51,3.75" fill="none" stroke="#231f20" stroke-miterlimit="10"/>
    <path d="M281.62,308.6s-.6-3.92.61-3.86,5.05,3.91,5.14,6.01" fill="none" stroke="#231f20" stroke-miterlimit="10"/>
    <path d="M276.58,308.08s-.14-2.91.63-2.56,3.79,4.31,3.74,7.45" fill="none" stroke="#231f20" stroke-miterlimit="10"/>
    <path d="M274.15,306.53s.09-1.08.57-1.01,1.84,1.25,1.85,3" fill="none" stroke="#231f20" stroke-miterlimit="10"/>
  </g>
  <path d="M395.37,256.28c-16.94,77.23-42.95,127.12-90.24,127.12s-71.5-48.23-90.35-125.02c-21.54-87.72.53-161.32,90.35-161.32,77.74,0,108.21,77.27,90.24,159.22Z" fill="none" stroke="#231f20" stroke-miterlimit="10"/>
  <g>
    <path d="M390.22,236.84s5.25-22.06,18.38-19.96-.19,49.9-8.24,60.41c.88,8.4-9.62,16.28-14.35,2.63" fill="none" stroke="#231f20" stroke-miterlimit="10"/>
    <path d="M217.16,242.2s-5.49-26.74-21.24-25.46c-7.33,4.58-3.14,18.76-4.4,23.49,1.22,3.79,7.88,18.46,7.34,25.97,2.32,6.43,4.48,9.65,5.19,12.87s1.43,10.01,6.07,10.01,12.51-8.76,11.08-16.08" fill="none" stroke="#231f20" stroke-miterlimit="10"/>
  </g>
  <g>
    <path d="M375.36,226.3s-6.41-18.09-22.23-19.59-20.67-.81-23.4.32-10.94,11.75,2.15,9.72,30.67-.61,43.48,9.56Z" fill="none" stroke="#231f20" stroke-miterlimit="10"/>
    <path d="M287.37,210.47s-29.57-2.64-37.1,0-15.07,15.83-15.07,15.83c0,0,15.45-8.71,24.12-8.5s19.07-.21,22.16,0,13.18-6.78,5.9-7.33Z" fill="none" stroke="#231f20" stroke-miterlimit="10"/>
  </g>
  <g>
    <path d="M325.75,230.24s9.23-9.01,20.39-7.8,18.96,6.76,19.65,7.8c0,0,5.15,3.79,9.58,1.78" fill="none" stroke="#231f20" stroke-miterlimit="10"/>
    <path d="M327.81,230.93s1.19,0,4.07-.69,9.47.69,13.88.69,7.89,0,11.7-.69c3.29.35,7.28,1.39,7.28,1.39" fill="none" stroke="#231f20" stroke-miterlimit="10"/>
    <path d="M286.57,231.62s-8.52-7.28-17.26-6.76-20.35,8.32-20.35,8.32" fill="none" stroke="#231f20" stroke-miterlimit="10"/>
    <path d="M284.42,231.62l-4.43-.79s-7.8,2.18-11.7,2.35-13.78-1.56-13.78-1.56" fill="none" stroke="#231f20" stroke-miterlimit="10"/>
    <path d="M329.73,236.27s20.49,8.98,36.06,0c7.08,3.15,9.75,2.29,12.66,2" fill="none" stroke="#231f20" stroke-miterlimit="10"/>
    <path d="M285.47,236.27s-19.74,9.49-36.51,1.13c-7.05,3.69-10.55,3.2-12.88,2.87" fill="none" stroke="#231f20" stroke-miterlimit="10"/>
    <path d="M289.95,226.3s-6.62-3.1-12.45-3.1-13.42,1.35-16.72,1.55-12.64,5.39-14.59,7.27-6.82,3.45-11,2.37" fill="none" stroke="#231f20" stroke-miterlimit="10"/>
    <path d="M244.05,235.58s-6.81,3.85-13.61.69" fill="none" stroke="#231f20" stroke-miterlimit="10"/>
    <path d="M351.86,226.3c0,2.94-3.03,4.53-6.76,4.53s-6.76-1.59-6.76-4.53,3.03-3.56,6.76-3.56,6.76.62,6.76,3.56Z" fill="none" stroke="#231f20" stroke-miterlimit="10"/>
    <path d="M275.32,228.5c0,2.58-2.86,4.68-7.03,4.68s-8.07-2.1-8.07-4.68,3.38-3.94,7.55-3.94,7.55,1.36,7.55,3.94Z" fill="none" stroke="#231f20" stroke-miterlimit="10"/>
    <path d="M365.79,233.2s4.86,3.42,11.86,2.06" fill="none" stroke="#231f20" stroke-miterlimit="10"/>
  </g>
  <g>
    <path d="M329.73,258.66s10.01,8.21,12.61,9.82,3.97,6.86,8.59,12.13,8.05,6.24,9.04,12.05-3.89,13.22-4.4,18.01-8.31,19.21-7.47,24.67" fill="none" stroke="#231f20" stroke-miterlimit="10"/>
    <path d="M278.76,261.65s-4.75,5.51-6.19,7.42-3.91,9.34-7.82,12.45-11.58,12.27-11.58,15.48c0,7.65,3.85,12.23,3.83,17.73,0,2.25,1.92,7.98,1.68,11.58" fill="none" stroke="#231f20" stroke-miterlimit="10"/>
  </g>
  <g>
    <path d="M373.95,288.23s-4.99,21.8-8.16,26.51" fill="none" stroke="#231f20" stroke-miterlimit="10"/>
    <path d="M362.02,315.32s-14.38,27.77-15.74,35.92-7.87,20.08-10.77,21.87" fill="none" stroke="#231f20" stroke-miterlimit="10"/>
    <path d="M253.18,327.4s10.98,30.97,12.79,35.21,5.35,11.35,10.6,12.5" fill="none" stroke="#231f20" stroke-miterlimit="10"/>
  </g>
  <path d="M389.42,232.6s-.51-18.47,0-20.27-.88-16.7-10.97-17.21c-3.41-6.68-4.5-10.53-4.5-10.53,0,0,5.51-6.17-2.23-16.96-.03-9.51,1.51-19.27-3.88-21.58s-17.35-5.4-17.82-10.53c-8.94,3.6-71.95,2.31-82.25-2.31-14.15,4.11-18.11,2.31-27.87,11.82-2.06,7.45-7.96,25.18-7.96,25.18,6.42,2.31,6,5.91,5.31,9.76s-12.05,14.9-15.87,21.84-5.11,29.06-3.57,36.75" fill="none" stroke="#231f20" stroke-miterlimit="10"/>
</svg>