<?xml version="1.0" encoding="UTF-8"?>
<svg id="Layer_2" data-name="Layer 2" xmlns="http://www.w3.org/2000/svg" viewBox="0 0 595.28 595.28">
  <g>
    <line x1="319.27" y1="197.04" x2="312.12" y2="244.21" fill="none" stroke="#231f20" stroke-miterlimit="10"/>
    <path d="M299.3,241.43s-5.43,7.33-4.25,12.05,9.15,5.12,11.19,6.25c3.56,1.98,7.72,12.89,15.04,13.13s14.41-12.05,21.98-12.52" fill="none" stroke="#231f20" stroke-miterlimit="10"/>
    <path d="M340.18,266.95s14.18.24,12.05-13.23" fill="none" stroke="#231f20" stroke-miterlimit="10"/>
  </g>
  <g>
    <path d="M352.45,294.15s-22.67,1.78-29.53-1.35-15.99-2.96-21.85-3.35-14.47-3.91-14.47-3.91" fill="none" stroke="#231f20" stroke-miterlimit="10"/>
    <path d="M349.23,296.32s-13.69,3.83-16.67,4.99c-7.02-.25-19.12-.88-23.34-2.49s-11.68-3.37-14.35-3.37" fill="none" stroke="#231f20" stroke-miterlimit="10"/>
    <path d="M339.41,309.61s-20.79,6.77-36.9-.81" fill="none" stroke="#231f20" stroke-miterlimit="10"/>
  </g>
  <g>
    <path d="M357.63,191.79s29.31.46,37.58,3.29c8.51,1.89,5.67-3.3-3.31-7.55s-25.87-8.29-42.67-1.9c-4.75,4.02,8.4,6.16,8.4,6.16Z" fill="none" stroke="#231f20" stroke-miterlimit="10"/>
    <path d="M315.7,184.72s-2.02-9.97-26.95-11.22-31.15,1.55-34.63,7.77,15.92.78,25.99,1.03,36.05,7.33,35.59,2.42Z" fill="none" stroke="#231f20" stroke-miterlimit="10"/>
  </g>
  <g>
    <g>
      <path d="M386.74,210.84c-10.25-14.28-25.16-11.49-29.14-11.09s-8.37,6.99-8.37,6.99c0,0,10.81,8.74,33.41,4.1" fill="none" stroke="#231f20" stroke-miterlimit="10"/>
      <path d="M386.74,207.93s-10.13-15.98-34.29-10.89" fill="none" stroke="#231f20" stroke-miterlimit="10"/>
      <path d="M360.36,211.1c-1.41-1.35-2.3-3.26-2.3-5.37,0-2.51,1.24-4.73,3.15-6.07" fill="none" stroke="#231f20" stroke-miterlimit="10"/>
      <path d="M369.96,199.82c1.79,1.35,2.94,3.5,2.94,5.92,0,2.87-1.63,5.36-4.02,6.6" fill="none" stroke="#231f20" stroke-miterlimit="10"/>
    </g>
    <g>
      <path d="M270.73,198.08c10.43-9.66,20.28-6.76,25.3-5.41,2.32,1.54,13.71,12.39,13.71,12.39" fill="none" stroke="#231f20" stroke-miterlimit="10"/>
      <path d="M302.99,189.39s-17.38-7.17-36.69,6.65" fill="none" stroke="#231f20" stroke-miterlimit="10"/>
      <path d="M308.14,205.06s-23.82,1.74-32.77-5.79c-1.57.25-3.96,0-3.96,0" fill="none" stroke="#231f20" stroke-miterlimit="10"/>
      <path d="M282.03,202.7c-1.78-1.54-2.9-3.82-2.9-6.36,0-1.47.38-2.85,1.04-4.05" fill="none" stroke="#231f20" stroke-miterlimit="10"/>
      <path d="M294.97,192.39c.63,1.18.99,2.53.99,3.96,0,3.71-2.39,6.85-5.72,7.98" fill="none" stroke="#231f20" stroke-miterlimit="10"/>
    </g>
  </g>
  <path d="M415.42,222.15s1.64,13.96,0,28.74-6.09,16.19-7.05,24.29-2.86,17.13-6.19,22.62-12.39,15.98-14.29,22.17-23.35,66.23-69.57,60.04-72.43-39.55-74.33-58.61-10.96-59.08-14.29-67.66" fill="none" stroke="#231f20" stroke-miterlimit="10"/>
  <path d="M416.15,218.38s9.3-10.17,11.86-18.56c1.22-3.98-1.32-8.41.68-12.29,4.73-9.19-.75-22.96-.75-28.76,0-8.22,3.6-25.69,3.08-35.46s-8.17-31.35-14.87-37.51c1.51-11.31-48.33-50.36-80.71-53.44s-76.05,9.76-94.04,30.83c-11.71,14.9-7.01,20.91-11.71,28.73s-13.54,13.6-13.88,19.05.68,9.18,0,18.03-4.08,21.09-2.72,28.91,3.06,13.94,3.06,13.94c0,0,11.78,18.78,11.78,24.19,1.76-4.25,2.7-22.36,6.74-31.26s25.88-27.23,28.85-33.16c0,0-.81,11.86.54,16.18,1.08-9.98,4.58-38.28,13.21-41.25-4.31,6.2-12.53,26.15-6.53,45.29.6-14.29-5.16-33.16,24.14-49.34,17.98,3.5,23.64,2.43,32,1.62s18.87-2.43,29.93-1.89,14.29,5.12,27.23,3.77,15.1,7.01,17.52,12.4,6.74,24.53,2.43,29.66c2.97,6.74,3.67,17.45,3.67,25.14,3.4,3.86,4.42,4.17,4.42,13.24,0,0-.03,10.5-.74,15.8s2.82,17.03,2.82,17.03l1.99-.9Z" fill="none" stroke="#231f20" stroke-miterlimit="10"/>
  <g>
    <path d="M431.07,188.89c11.1-.88.77,12.72,2.61,23.44s-1.48,42.12-5.53,48-1.48,13.61-21.4,11.04" fill="none" stroke="#231f20" stroke-miterlimit="10"/>
    <g>
      <path d="M216.15,171.85s-3.8-4.12-7.86-3.38,0,17.6-2.21,23.92-6.27,40.26,0,50.59,20.29,22.87,23.61,6.27" fill="none" stroke="#231f20" stroke-miterlimit="10"/>
      <path d="M223.79,207.93s-1-19.9-11.01-25.62" fill="none" stroke="#231f20" stroke-miterlimit="10"/>
    </g>
  </g>
  <g>
    <path d="M413.76,230.44s-2.58,30.99-9.22,33.2-33.38,38.73-34.95,42.05" fill="none" stroke="#231f20" stroke-miterlimit="10"/>
    <path d="M346.31,272.86s23.81,4.98,22.58,17.25" fill="none" stroke="#231f20" stroke-miterlimit="10"/>
    <path d="M302.99,263.63s-33.66,9.14-36.69,17.85" fill="none" stroke="#231f20" stroke-miterlimit="10"/>
    <path d="M237.44,220.63s2.95,45.23,6.27,52.23" fill="none" stroke="#231f20" stroke-miterlimit="10"/>
    <path d="M266.29,274.7s-3.77-6.27-7.83-6.64-19.55,4.5-19.55,4.5" fill="none" stroke="#231f20" stroke-miterlimit="10"/>
    <path d="M280.58,279.5s20.18,5.9,30.94,4.43c7.81,3.32,12.24,3.99,19.25,1.63,6.64,1.69,16.48,7.68,27.3,6.12" fill="none" stroke="#231f20" stroke-miterlimit="10"/>
    <path d="M400.32,274.7s2.46,6.5,2.46,10.85" fill="none" stroke="#231f20" stroke-miterlimit="10"/>
    <path d="M394.75,284.28s1.07,5.88,0,12.29" fill="none" stroke="#231f20" stroke-miterlimit="10"/>
    <path d="M339.41,274.7s3.49,6.03,2.42,11.01" fill="none" stroke="#231f20" stroke-miterlimit="10"/>
    <path d="M327.08,276.27s1.28,2.41,0,8.02" fill="none" stroke="#231f20" stroke-miterlimit="10"/>
    <path d="M313.5,274.7s-1.34-.03,0,6.78" fill="none" stroke="#231f20" stroke-miterlimit="10"/>
    <path d="M300.14,271.88s-1.42,3.32,0,7.62" fill="none" stroke="#231f20" stroke-miterlimit="10"/>
    <path d="M289.77,272.86s-1.15,1.29,0,5.23" fill="none" stroke="#231f20" stroke-miterlimit="10"/>
    <path d="M315.7,319.83s2.35,4.93,1.28,7.14" fill="none" stroke="#231f20" stroke-miterlimit="10"/>
    <path d="M308.14,317.96s2.22,3.58,1.61,7.75" fill="none" stroke="#231f20" stroke-miterlimit="10"/>
    <path d="M295.96,310.6s-4.64,2.55-4.64,5.22" fill="none" stroke="#231f20" stroke-miterlimit="10"/>
    <path d="M327.64,347.09s4.25,14.7,0,20.31" fill="none" stroke="#231f20" stroke-miterlimit="10"/>
    <path d="M315.7,350.3s3.69,13.02,0,20.85" fill="none" stroke="#231f20" stroke-miterlimit="10"/>
    <path d="M295.96,335.6s.86,6.15-6.7,8.02" fill="none" stroke="#231f20" stroke-miterlimit="10"/>
    <path d="M306.02,347.09s-3.49,12.29-10.03,14.7" fill="none" stroke="#231f20" stroke-miterlimit="10"/>
    <path d="M308.14,358.85s.58,7.68-3.99,12.29" fill="none" stroke="#231f20" stroke-miterlimit="10"/>
    <path d="M277.69,305.69s1.26,9.87-11.4,14.14" fill="none" stroke="#231f20" stroke-miterlimit="10"/>
    <path d="M354.93,330.55s4.59,18.41,2.69,23.89" fill="none" stroke="#231f20" stroke-miterlimit="10"/>
    <path d="M362.68,314.49s8.68,11.23,8.22,22.99" fill="none" stroke="#231f20" stroke-miterlimit="10"/>
    <path d="M253.7,284.28s.8,6.92-2.8,7.64" fill="none" stroke="#231f20" stroke-miterlimit="10"/>
    <path d="M252.34,301.3s1.14,8.96-1.44,11.09" fill="none" stroke="#231f20" stroke-miterlimit="10"/>
    <path d="M289.26,333.14s-12.63,4.46-13.65,9.36" fill="none" stroke="#231f20" stroke-miterlimit="10"/>
    <path d="M264.06,333.14s1.17,12.04-2.38,13.96" fill="none" stroke="#231f20" stroke-miterlimit="10"/>
    <path d="M357.62,294.66s3.48.46,0,6.64" fill="none" stroke="#231f20" stroke-miterlimit="10"/>
    <path d="M343.25,337.82s3.2,8.67,0,19.43" fill="none" stroke="#231f20" stroke-miterlimit="10"/>
    <path d="M381.09,300.89s2.9,2.26,0,17.07" fill="none" stroke="#231f20" stroke-miterlimit="10"/>
    <path d="M266.29,294.66s2.08,6.58-3.33,12.19" fill="none" stroke="#231f20" stroke-miterlimit="10"/>
    <path d="M282.03,274.7s-5.46,3.35-6.42,8.32" fill="none" stroke="#231f20" stroke-miterlimit="10"/>
    <path d="M356.51,285.55s5.18,2.03,4.71,4.88" fill="none" stroke="#231f20" stroke-miterlimit="10"/>
    <path d="M348.2,278.86s3.17,2.65,1.03,9.13" fill="none" stroke="#231f20" stroke-miterlimit="10"/>
  </g>
  <path d="M300.14,212.2s-14.33,4.1-21.02,3.2-8.63-4.12-12.44-4.3" fill="none" stroke="#231f20" stroke-miterlimit="10"/>
  <path d="M295.96,323.39s13.78,12.54,31.11,4.43" fill="none" stroke="#231f20" stroke-miterlimit="10"/>
  <path d="M349.97,215.53s9.27,7.69,18.92,6.62" fill="none" stroke="#231f20" stroke-miterlimit="10"/>
  <g>
    <path d="M362.68,95.61s3.34-27.32-39.76-27.7" fill="none" stroke="#231f20" stroke-miterlimit="10"/>
    <path d="M402.77,101.6s-3.89-43.79-50.33-53.52" fill="none" stroke="#231f20" stroke-miterlimit="10"/>
    <path d="M321.92,98.6c-3.93-2.25-22.15-10.48-42.8-6.36" fill="none" stroke="#231f20" stroke-miterlimit="10"/>
    <path d="M327.08,95.61s-23.1-17.97-51.46-7.49" fill="none" stroke="#231f20" stroke-miterlimit="10"/>
    <path d="M332.96,94.85s-30.32-25.37-73.73-4.63" fill="none" stroke="#231f20" stroke-miterlimit="10"/>
    <path d="M374.26,84.84s-5.95-19.55-26.06-19.92" fill="none" stroke="#231f20" stroke-miterlimit="10"/>
    <path d="M329.96,44.33s-32.6-19.09-65.14,18.34" fill="none" stroke="#231f20" stroke-miterlimit="10"/>
  </g>
</svg>