<?xml version="1.0" encoding="UTF-8"?>
<svg id="Layer_2" data-name="Layer 2" xmlns="http://www.w3.org/2000/svg" viewBox="0 0 297.64 364.31">
  <path d="M163.59,145.68l6.58-40.49-10.12-21.26-16.2-14.17s0-14.17-5.31-18.73c-7.84-1.01-28.09,0-28.09,0,0,0,11.64,25.81,21.26,31.38-11.39-9.87-24.29-29.1-24.29-29.1,0,0,14.68,26.32,18.98,28.6-5.57-1.01-18.98-21.76-18.98-21.76,0,0,9.62,22.02,11.89,23.03-3.8-1.01-11.64-12.15-11.89-12.4,3.8,7.59,6.33,12.91,7.84,13.41-5.82-2.28-9.11-6.83-9.11-6.83,0,0,3.04,9.11,4.05,10.12l-5.57-2.53s1.52,6.07,4.3,6.83c-5.82-2.28-21-9.62-23.03-12.4,7.34,8.1,7.84,10.12,7.84,10.12l-15.69-14.68c6.83,8.86,3.54,5.82,3.54,5.82,0,0-14.17-10.12-14.17-12.4,0,6.58,1.27,32.14,1.52,33.4s1.01,10.63,2.53,12.65c.25,3.04,10.88,38.72,17.46,45.55-6.07-2.78-13.67-22.02-18.47-43.78-9.11-8.6-12.15-24.55-10.12-45.3-9.62-9.36-21.95-30.11-.6-36.69,5.91-15.18,21.86-30.37,63.87-28.34s63.52,27.33,70.35,66.05c5.1,26.57,5.57,37.96,3.29,43.53,0,7.84,3.04,19.99,4.05,21.26-3.54-1.01-8.1-1.01-8.1-1.01l-.51-6.33-4.3-4.56s5.57-8.1,4.81-24.8-5.06-13.67-12.15-4.81c-3.54,4.3-4.56,7.34-4.56,7.34l6.58,8.6,3.8,20.25c-.76,3.54-16.45,13.67-23.28,14.42Z" fill="#231f20" stroke="#231f20" stroke-miterlimit="10"/>
  <path d="M67.42,68.24c0,6.58,1.27,32.14,1.52,33.4s1.01,10.63,2.53,12.65c.25,3.04,10.88,38.72,17.46,45.55,0,0,18.07,28.64,21.14,32.11s4.56,8.59,14.55,7.98,14.9.61,20.21-3.68,41.72-37.01,48.67-59.1c0,0,.91-6.68-5.05-13.52" fill="none" stroke="#231f20" stroke-miterlimit="10"/>
  <path d="M181.66,92.4s5.3-7.16,7.96-6.1,4.16,4.51,3.94,6.1-.65,19.54-1.44,23.17-3.63,10.25-7.1,9.78-3.61-3.49-3.36-5.1" fill="none" stroke="#231f20" stroke-miterlimit="10"/>
  <g>
    <path d="M89.07,104.45s5.48,3.24,7.98,4.98,2.86,27.39,2.86,29.72c-1.27,3.38-.62,6.42,2.87,6.92,8.98,1.33,7.67-3.91,14.51-3.77" fill="none" stroke="#231f20" stroke-miterlimit="10"/>
    <path d="M123.07,136.24c2.39,1.96,2.39,8.69-3.26,8.69" fill="none" stroke="#231f20" stroke-miterlimit="10"/>
  </g>
  <g>
    <path d="M87.24,104.45s-16.01-1.95-17.01-1.27-1,3.8,0,4.6c0,0-.16,2.05.47,2.26s10.02-4.22,22.4,1.58c3.69.79,3.43-.53,0-2.64s-5.86-4.54-5.86-4.54Z" fill="#231f20" stroke="#231f20" stroke-miterlimit="10"/>
    <path d="M109.33,96.9s19.18-10.19,22.62-10.72,11.54,3.45,15.58,5.36-4.2,2.81-6.89,1.61-3.9-3.15-6.29-2.55-8.69,4.05-13.78,4.79-8.09,4.35-9.44,4.35-3.5-1.95-1.8-2.85Z" fill="#231f20" stroke="#231f20" stroke-miterlimit="10"/>
  </g>
  <g>
    <path d="M136.15,161.2s-9.14-1.52-13.95-3.22-7.69-.72-10.91.42c-4.17-1.14-7.36-1.93-9.26,2.81-1.52,4.17,5.15,3.43,7.58,1.72s9.48,2.45,26.54-1.72Z" fill="none" stroke="#231f20" stroke-miterlimit="10"/>
    <path d="M119.81,169.1c3.2-3.75,15.15-6.73,15.15-6.73" fill="none" stroke="#231f20" stroke-miterlimit="10"/>
    <path d="M122.99,167.6s-12.52-2.04-15.63,1.07,1.67,9.59,11.36,8.44,13.62-11.99,20.55-13.37c0,0,.88-3.12-4.61-1.36" fill="none" stroke="#231f20" stroke-miterlimit="10"/>
  </g>
  <path d="M182.27,134.99s4.08,13.64-2.04,21.09" fill="none" stroke="#231f20" stroke-miterlimit="10"/>
  <path d="M124.59,134.12s6.53,7,7.38,11.42" fill="none" stroke="#231f20" stroke-miterlimit="10"/>
  <path d="M130.49,179.99s-7.48-3.44-13.19,0" fill="none" stroke="#231f20" stroke-miterlimit="10"/>
  <g>
    <path d="M108.7,148.82s-.46,5.86-.82,6.57" fill="none" stroke="#231f20" stroke-miterlimit="10"/>
    <line x1="112.75" y1="148.82" x2="112.75" y2="155.39" fill="none" stroke="#231f20" stroke-miterlimit="10"/>
  </g>
  <g>
    <g>
      <path d="M141.58,104.45s-9.3-7.52-22.87,4.31" fill="none" stroke="#231f20" stroke-miterlimit="10"/>
      <path d="M134.96,104.45c0,1.65-1.34,2.99-2.99,2.99s-2.99-1.34-2.99-2.99,1.34-2.26,2.99-2.26,2.99.61,2.99,2.26Z" fill="#231f20" stroke="#231f20" stroke-miterlimit="10"/>
      <path d="M121.41,108.76s12.46.93,14.75,0,4.25-3.33,4.25-3.33" fill="none" stroke="#231f20" stroke-miterlimit="10"/>
      <path d="M116.19,107.3s7.84-9.65,24.22-7.55" fill="none" stroke="#231f20" stroke-miterlimit="10"/>
    </g>
    <g>
      <path d="M94.75,114.28s-10.09-5.2-18.77,7.57" fill="none" stroke="#231f20" stroke-miterlimit="10"/>
      <path d="M91.12,115.07c0,1.74-1.41,3.15-3.15,3.15s-3.15-1.41-3.15-3.15,1.41-1.84,3.15-1.84,3.15.1,3.15,1.84Z" fill="#231f20" stroke="#231f20" stroke-miterlimit="10"/>
      <path d="M78.33,121.85s7.86.56,11.79-1.08,4.63-4.09,4.63-4.09" fill="none" stroke="#231f20" stroke-miterlimit="10"/>
      <path d="M74.98,119.31s4.95-9.88,16.14-7.45" fill="none" stroke="#231f20" stroke-miterlimit="10"/>
    </g>
  </g>
  <line x1="106.42" y1="109.17" x2="108.7" y2="136.24" fill="none" stroke="#231f20" stroke-miterlimit="10"/>
  <path d="M132.59,162.37s-14.86,2.81-19.33,1.91v2.71h-4.57l-.82-2.71s2.86-1.74,2.82-1.74,17.07,1.57,21.9-.17Z" fill="#231f20" stroke="#231f20" stroke-miterlimit="10"/>
</svg>