<?xml version="1.0" encoding="UTF-8"?>
<svg id="Layer_2" data-name="Layer 2" xmlns="http://www.w3.org/2000/svg" viewBox="0 0 596 639">
  <g>
    <g>
      <path d="M293.04,274.16s5.29-6.87,13.22-8.46,38.06.24,49.16,4.35" fill="none" stroke="#231f20" stroke-miterlimit="10"/>
      <path d="M298,279.58s6.75-5.54,9.64-9.94,26.81-.98,42.42,4.97" fill="none" stroke="#231f20" stroke-miterlimit="10"/>
      <path d="M345.57,275.43s-20.71,13.24-42.56,3.56" fill="none" stroke="#231f20" stroke-miterlimit="10"/>
      <path d="M334.13,270.26c.09.58.14,1.18.14,1.79,0,3.91-1.96,7.36-4.95,9.43" fill="none" stroke="#231f20" stroke-miterlimit="10"/>
      <path d="M317.83,282.36c-3.83-1.85-6.47-5.78-6.47-10.32,0-1.48.28-2.9.8-4.21" fill="none" stroke="#231f20" stroke-miterlimit="10"/>
    </g>
    <g>
      <path d="M224.7,272.93s-3.77-3.3-9.44-2.83-36.33,8.49-45.76,15.1" fill="none" stroke="#231f20" stroke-miterlimit="10"/>
      <path d="M224.7,279.58c-4.93-6.34-15.77-8.3-15.77-8.3" fill="none" stroke="#231f20" stroke-miterlimit="10"/>
      <path d="M176.12,281.67s26.72,10.06,44.02,0" fill="none" stroke="#231f20" stroke-miterlimit="10"/>
      <path d="M191.99,285.2c-2.27-1.88-3.88-4.54-4.41-7.57" fill="none" stroke="#231f20" stroke-miterlimit="10"/>
      <path d="M211.8,270.66c.6,1.47.93,3.08.93,4.77,0,4.26-2.1,8.02-5.32,10.32" fill="none" stroke="#231f20" stroke-miterlimit="10"/>
    </g>
  </g>
  <g>
    <path d="M277.41,263.78s41.69-27.97,49-27.97c10.99,0,32.98,9.56,34.18,10.99s-3.35,3.34-7.89,2.03-8.6-2.98-19.6-1.31-11.71,11.23-39.44,16.25c-9.32-.48-16.25,0-16.25,0Z" fill="none" stroke="#231f20" stroke-miterlimit="10"/>
    <path d="M240.36,259.48s-26.94-4.54-32.95-6.21-9.12-.24-11.75-1.2-10.99-5.5-14.1-4.06-15.54,13.62-18.88,15.78-5.72,10.85,6.82,3.87,31.9-3.87,35.49-3.87,22.23.72,25.81,0,8.84.24,9.56-4.3Z" fill="none" stroke="#231f20" stroke-miterlimit="10"/>
  </g>
  <g>
    <path d="M241.46,267.84s6.8,5.98,9.07,11.74.91,58.35-13.15,69.68" fill="none" stroke="#231f20" stroke-miterlimit="10"/>
    <path d="M277.41,269.65s-8.75,6-8.75,12.89,8.75,61.74,8.75,61.74" fill="none" stroke="#231f20" stroke-miterlimit="10"/>
    <path d="M290.87,363.32s-8.16,18.59-24.93,21.31-27.2-9.07-31.73-14.05" fill="none" stroke="#231f20" stroke-miterlimit="10"/>
    <path d="M304.92,356.97s7.01,14.51-6.92,19.95" fill="none" stroke="#231f20" stroke-miterlimit="10"/>
    <path d="M224.7,356.97s-5,12.24,5.42,19.95" fill="none" stroke="#231f20" stroke-miterlimit="10"/>
  </g>
  <path d="M302.34,349.26s39.45,37.63,43.23,57.57" fill="none" stroke="#231f20" stroke-miterlimit="10"/>
  <path d="M216.82,365.13s-14.38,20.85-16.63,31.73" fill="none" stroke="#231f20" stroke-miterlimit="10"/>
  <path d="M293.04,462.59s-33.03-6.35-48.65,3.63" fill="none" stroke="#231f20" stroke-miterlimit="10"/>
  <path d="M237.38,505.21s27.41,12.24,60.62,2.72" fill="none" stroke="#231f20" stroke-miterlimit="10"/>
  <path d="M406.37,281.41s24.73,107.35-7.07,140.91-81.48,95.92-121.89,94.84-109.26-63.43-124.44-80.24c-15.18-16.81-27.65-45.54-19.52-121.98" fill="none" stroke="#231f20" stroke-miterlimit="10"/>
  <g>
    <path d="M125.32,283.9s-15.68-53.16-37.41-41.61c-.87.46-12.65,6.24-2.75,31.86s7.7,32.22,10.18,39.65,4.86,17.6,7.93,21.45,4.72,6.47,5.27,9.01-.55,7.17,2.2,12.69,11,13.23,18.7,13.23" fill="none" stroke="#231f20" stroke-miterlimit="10"/>
    <path d="M118.78,275.87s-10.62-20.74-31.85-21.71" fill="none" stroke="#231f20" stroke-miterlimit="10"/>
    <path d="M90.15,256.09s-2.57,12.53,1.29,19.78" fill="none" stroke="#231f20" stroke-miterlimit="10"/>
    <path d="M112.23,285.75s-12.79,18.99,9.38,33.75" fill="none" stroke="#231f20" stroke-miterlimit="10"/>
  </g>
  <g>
    <path d="M410.88,247.73s5.61-41.44,26.81-42.06,16.83,34.99,16.83,34.99c0,0-8.73,36.8-8.73,45.48s.56,54.6-30.27,58.14" fill="none" stroke="#231f20" stroke-miterlimit="10"/>
    <path d="M415.53,254.16s3.46-4.85,3.46-9.22,10.8-29.88,22.45-28.06,7.56,20.75,9.98,23.77" fill="none" stroke="#231f20" stroke-miterlimit="10"/>
    <path d="M447.04,249.8s-8.45,48.79-13.58,58.75" fill="none" stroke="#231f20" stroke-miterlimit="10"/>
    <path d="M420.92,259.02s19.61,8.72,0,37.71" fill="none" stroke="#231f20" stroke-miterlimit="10"/>
  </g>
  <path d="M251.4,445.11s28.16,2.36,36.26,0" fill="none" stroke="#231f20" stroke-miterlimit="10"/>
  <g>
    <path d="M210.07,424.17l5.32-4.05s11.96,3.38,18.81,2.03,13.27,3.72,31.17,2.03,42.7-2.35,49.21-1.85,9.64-4.57,9.64-4.57h5.09" fill="none" stroke="#231f20" stroke-miterlimit="10"/>
    <path d="M222.14,424.52s24.18,19.58,47.55,18.57,43.58-13.85,48.13-18.57" fill="none" stroke="#231f20" stroke-miterlimit="10"/>
    <path d="M319.1,419.78l-39.87-2.03s-7.03,3.04-16.69,2.03-18.15-5.74-18.15-5.74c0,0-12.91,6.16-17.58,5.95" fill="none" stroke="#231f20" stroke-miterlimit="10"/>
  </g>
  <path d="M295.55,288.72s42.46,25.83,59.87-7.31" fill="none" stroke="#231f20" stroke-miterlimit="10"/>
  <path d="M226.81,292.35s-24.01,14.21-50.69,4.39" fill="none" stroke="#231f20" stroke-miterlimit="10"/>
  <path d="M404.91,296.27l-7.39,2.04-12.32-84.53-9.24-8.12s-11.76-88.8-23.07-93.65c5.81-6.78,2.52-8.4,2.52-8.4,0,0-85.54-4.85-101.04-9.04s-66.69,23.9-84.87,23.58-20.44,5.17-20.44,5.17c0,0-19.38,46.84-22.94,60.08s7.75,29.07,10.01,39.09-5.26,30.04-5.26,30.04l7.84,15.13-.65,51.85-10.98-10.95s.97-37.61-29.72-63.13c-5.94-28.63-18.67-120.24,33.51-160.48s211.69-81.79,260.46.33c21.68-3.33,52.82,56.69,38.29,125.89-14.53,3.33-29.52,62.25-24.73,85.11Z" fill="none" stroke="#231f20" stroke-miterlimit="10"/>
  <path d="M366.3,92.78s-3.51-18.31-48.47-17.05" fill="none" stroke="#231f20" stroke-miterlimit="10"/>
  <path d="M314.59,58.06s-52.72-10.73-77.21-5.68" fill="none" stroke="#231f20" stroke-miterlimit="10"/>
  <path d="M298,65s-74.47-2.53-110.42,16.42" fill="none" stroke="#231f20" stroke-miterlimit="10"/>
  <path d="M370.09,97.83s30.45-1.26,40.8,23.36" fill="none" stroke="#231f20" stroke-miterlimit="10"/>
  <g>
    <path d="M364.36,100.65s34.51,50.38,45.55,55.9" fill="none" stroke="#231f20" stroke-miterlimit="10"/>
    <path d="M370.09,92.78s13.26-2.55,27.15,5.04" fill="none" stroke="#231f20" stroke-miterlimit="10"/>
  </g>
  <g>
    <path d="M182.72,105.41s-33.63,16.01-63.94,12.32" fill="none" stroke="#231f20" stroke-miterlimit="10"/>
    <path d="M143.3,124.51s-21.93,12.94-24.52,19.71" fill="none" stroke="#231f20" stroke-miterlimit="10"/>
    <path d="M131.04,148.53s-17.79,14.17-22.48,25.87" fill="none" stroke="#231f20" stroke-miterlimit="10"/>
  </g>
</svg>