<?xml version="1.0" encoding="UTF-8"?>
<svg id="Layer_2" data-name="Layer 2" xmlns="http://www.w3.org/2000/svg" viewBox="0 0 595.2 738.24">
  <ellipse cx="292.35" cy="273.93" rx="117.28" ry="156.82" fill="none" stroke="#231f20" stroke-miterlimit="10"/>
  <path d="M283.15,328.42c-5.86,7.39-17.28,21.25-12.63,27.9s5.32,10.63,12.63,6.65,13.96-7.31,18.61-6.65,16.61.66,23.26,0,19.27,1.33,23.26,1.33h13.83s6.11-4.96,14.75,3.32,14.18,7.68,15.07-4.13-4.43-17.8-11.08-21.78-28.64-11.96-28.64-11.96c0,0-7.97,7.16-19.21,3.99s-17.51-3.32-27.36-3.99-17.44-1.03-22.48,5.33Z" fill="none" stroke="#231f20" stroke-miterlimit="10"/>
  <path d="M196.52,335.94c11.28-.94-7.55,11.95-30.19,3.14s-25.79-22.01-37.11-27.68-20.13-26.42-20.13-26.42l-14.47-37.94s-5.66-14.9,14.47-38.8,27.05-24.53,20.13-39.63-8.81-28.93,3.14-42.77,8.81-16.35,16.35-25.79,35.85-31.45,35.85-31.45c0,0,29.8-31.45,56.73-27.05s37.88,31.45,56.31,30.82,36.67,13.21,47.99,12.58,20.13-8.81,35.85-3.77,8.1,15.1,12.86,25.16,11.67,28.3,33.69,30.19-15.72,6.92-5.03,16.98,17.61,22.64,37.74,28.93,30.82,11.95,27.05,25.79-20.13,5.66-17.61,16.98,13.21,21.28,15.72,32.34,1.89,13.56,15.1,11.68-20.13,24.47-31.45,11.29-27.05,31.48-5.03,32.11,9.43,9.5-3.77,15.76,3.14,21.35-15.1,20.72-20.76,1.89-31.45,4.4-19.57-17.57-19.85-30.8,4.7-86.28,6.61-108.25-4.38-57.82-23.25-67.26-10.24-7.55-43.81-4.4-39.49-13.21-71.75,3.77-50.5,22.64-40.43,47.17,3.77,39.45,3.14,50.55-6.29,13-6.29,20.22-6.3-8.63-24.53-8.2-25.16-14.69-25.16,3.51,5.03,77.95,27.68,76.07Z" fill="none" stroke="#231f20" stroke-miterlimit="10"/>
  <path d="M342.29,249.99s1.99,16.63,3.99,23.93,7.97,18.6,10.63,21.92,6.65,13.96,4.65,19.27-5.44,5.98-9.37,7.97-13.23,7.97-19.21,3.99-14.62-2.66-20.6-4.65-8.64-8.64-5.32-15.95,11.96-18.61,11.96-25.92,3.99-26.58,3.99-30.57,3.08-16.61,10.84-17.28,7.13,7.67,8.43,17.28Z" fill="none" stroke="#231f20" stroke-miterlimit="10"/>
  <g>
    <path d="M362.1,236.7c8.76,0,9.43-5.32,15.41,0s12.38,8.64,14.5,9.3,3.87-4.06,0-11.67-10.51-6.94-16.49-10.26-6.9-3.99-13.42,0-15.7,6.62-7.85,9.62l7.85,3Z" fill="none" stroke="#231f20" stroke-miterlimit="10"/>
    <path d="M311.72,228.06s.99-13.96-14.12-13.96-19.95-5.98-28.17,0-15.53,10.56-14.2,18.57-3.99,18.64,5.98,10.01,18.61-17.39,24.59-14.01,17.04,2.02,19.82,5.02,6.1-5.64,6.1-5.64Z" fill="none" stroke="#231f20" stroke-miterlimit="10"/>
  </g>
  <g>
    <path d="M394.3,269.24c-1.94.2-3.98-2.04-5.21-2.04s-2.86-5.11-3.88-5.31-1.63-5.11-2.04-6.54-4.49-4.29-7.76-7.15-6.33-2.04-10.42-2.3-13.76,8.23-13.76,8.23c0,0,6.61,6.54,13.35,6.33s9.81,1.23,13.89-.82,5.52-2.04,6.74-1.02" fill="none" stroke="#231f20" stroke-miterlimit="10"/>
    <path d="M351.23,250.65c2.93-1.63,8.04-11.44,14.78-11.64s12.87,2.04,14.91,4.09,5.72,6.13,6.54,8.78,1.84,7.56,3.68,9.19" fill="none" stroke="#231f20" stroke-miterlimit="10"/>
    <path d="M306.74,254.53c-1.17-.52-4.49-4.68-9.14-7.55s-8.81-2.73-11.81-2.6-6.9,2.47-9.11,4.03-6.51,7.03-6.64,7.55-.26,3.45-3.51,5.11-5.6,6.21-8.33,6.21-9.24,1.04-9.24,1.04c0,0-5.2.13-7.68,0" fill="none" stroke="#231f20" stroke-miterlimit="10"/>
    <path d="M305.62,257.57s-6.32,6.98-13.27,6.98-15.15-.39-18.34-2.73-5.01-3.03-5.92-4.25" fill="none" stroke="#231f20" stroke-miterlimit="10"/>
    <path d="M314.16,251.02c-5.2-.52-11.58-2.31-11.58-5.12s-4.81-7.5-6.77-7.5" fill="none" stroke="#231f20" stroke-miterlimit="10"/>
    <path d="M302.97,239c-3.12-1.64-6.12-4.76-12.23-4.76s-12.88,3.41-14.96,4.76-5.6,7.86-7.68,10.07-3.38,10.28-5.99,10.8" fill="none" stroke="#231f20" stroke-miterlimit="10"/>
    <circle cx="284.09" cy="251.02" r="7.68" fill="none" stroke="#231f20" stroke-miterlimit="10"/>
    <circle cx="365.19" cy="252.82" r="7.05" fill="none" stroke="#231f20" stroke-miterlimit="10"/>
  </g>
  <path d="M266.62,396.1c7.33,6.99,39.24,22.98,67.24,20.31" fill="none" stroke="#231f20" stroke-miterlimit="10"/>
  <g>
    <path d="M291.77,353.76s42.44,12.94,73.42,0" fill="none" stroke="#231f20" stroke-miterlimit="10"/>
    <path d="M288.62,356.64s5.52,11.46,30.61,12.48,36.4-6.24,36.4-6.24" fill="none" stroke="#231f20" stroke-miterlimit="10"/>
  </g>
</svg>