<?xml version="1.0" encoding="UTF-8"?>
<svg id="Layer_2" data-name="Layer 2" xmlns="http://www.w3.org/2000/svg" viewBox="0 0 595.28 594.67">
  <path d="M383.06,230.7c2.66,51.29-30.89,69.51-76.52,69.51s-82.62-41.63-82.62-92.99-25.61-111.89,82.62-114.33c75.49-1.7,73.89,87.05,76.52,137.8Z" fill="none" stroke="#231f20" stroke-miterlimit="10"/>
  <path d="M278.21,249.91c6.21,1.75,26.13-5.98,40.22-8.85s29.21-1.32,29.21-1.32" fill="none" stroke="#231f20" stroke-miterlimit="10"/>
  <g>
    <path d="M309.2,153.35l3.72,2.26s16.01-7.11,27-7.11,18.43,5.5,20.7,7.11" fill="none" stroke="#231f20" stroke-miterlimit="10"/>
    <path d="M295.62,153.68s0,7.11-4.2,7.44l-4.2.32s-3.23-5.17-19.73-2.26-22.31,14.55-22.31,14.55" fill="none" stroke="#231f20" stroke-miterlimit="10"/>
  </g>
  <g>
    <g>
      <path d="M352.54,163.7s-.65-5.17-10.03-4.85-21.34,11.64-21.34,11.64" fill="none" stroke="#231f20" stroke-miterlimit="10"/>
      <path d="M349.3,162.41c.42,3.16-3.05,5.5-6.8,5.5s-7.29-1.78-6.78-5.5c.37-2.74,4.3-3.55,8.06-3.55s5.14.63,5.53,3.55Z" fill="none" stroke="#231f20" stroke-miterlimit="10"/>
    </g>
    <g>
      <path d="M284.62,173.73s-4.85-5.82-10.67-5.82-16.17,5.5-20.7,10.03" fill="none" stroke="#231f20" stroke-miterlimit="10"/>
      <path d="M277.19,170.49c0,3.75-3.04,6.79-6.79,6.79s-5.93-1.54-5.93-5.29c0-1.5,4.04-3.6,7.79-3.6s4.93-.35,4.93,2.1Z" fill="none" stroke="#231f20" stroke-miterlimit="10"/>
    </g>
  </g>
  <g>
    <path d="M312.92,160.28s.91,25.52,6.14,31.67,12.92,14.45,11.99,17.22-1.85,4.61-4,4-3.79-4.61-5.89-4.31.97,7.69-1.8,8.3-6.46,5.23-13.84-3.38-4.92.92-4.92,3.08-5.84,7.07-9.53-.31,5.12-12.3,6.56-19.07" fill="none" stroke="#231f20" stroke-miterlimit="10"/>
    <path d="M302.24,161.82s4.08,34.13,0,39.67" fill="none" stroke="#231f20" stroke-miterlimit="10"/>
  </g>
  <path d="M230.82,250.17c2.44,5.55,3.66,9.1,3.25,21.71-17.08,1.63-21.15-24.81-33.76-45.56s-12.2-31.32-12.2-41.49-4.88-21.56-6.51-43.53,13.42-62.24,20.75-69.97,21.15-23.19,50.91-21.97,23.12,2.03,20.27-4.47c2.85,1.63,32.95,6.51,30.52,0,17.91,14.24,59.38-1.63,76.05,8.54,15.05,10.58,17.9,41.9,4.88,53.29,7.32,4.07,12.81,33.36,12.81,41.79-3.46,3.95-3.86,8.25-3.05,14.88s8.95,9.45,8.95,9.45v12.8c-10.58,2.44-11.8,19.93-11.8,19.93" fill="none" stroke="#231f20" stroke-miterlimit="10"/>
  <g>
    <path d="M385.39,233.23s11.33-3.68,7.43-16.04c0,0,3.04-13.07-.43-26.81" fill="none" stroke="#231f20" stroke-miterlimit="10"/>
    <path d="M209.36,193.55c-6.29-6.29-16.7-9.32-17.57-1.08s2.63,25.64,14.43,45.03,24.17,22.72,23.95,5.33" fill="none" stroke="#231f20" stroke-miterlimit="10"/>
  </g>
  <g>
    <path d="M361.86,108.18s6.8-4.37,14.81,8.74,1.39,25.85,10.93,38.69" fill="none" stroke="#231f20" stroke-miterlimit="10"/>
    <path d="M380.56,158.41s4.13,14.23,14.81,19.52" fill="none" stroke="#231f20" stroke-miterlimit="10"/>
    <path d="M338.31,95.55s26.47-5.34,38.86,8.5" fill="none" stroke="#231f20" stroke-miterlimit="10"/>
    <path d="M369.16,75.59s-42.24,5.6-71.53-3.11-63.51,4.98-70.98,13.69-20.54,26.76-28,28" fill="none" stroke="#231f20" stroke-miterlimit="10"/>
    <path d="M329.51,86.23s-51.23,7.37-71.27,8.31-27.35,36.38-49.31,30.99" fill="none" stroke="#231f20" stroke-miterlimit="10"/>
    <path d="M210.93,133.23s-17.65,11.85-19.26,18.83" fill="none" stroke="#231f20" stroke-miterlimit="10"/>
    <path d="M210.93,149.79s-11,7.1-12.27,12.03-4.22,7.8-6.98,8.67" fill="none" stroke="#231f20" stroke-miterlimit="10"/>
  </g>
  <g>
    <path d="M333.67,205.3s3.92,11.09,10.86,15.5,14.94,17.08,13.2,20.7" fill="none" stroke="#231f20" stroke-miterlimit="10"/>
    <path d="M286.62,216.16s-3.62,15.44-10.86,17.07c-4.22,5.25-3.62,14.9-3.62,14.9" fill="none" stroke="#231f20" stroke-miterlimit="10"/>
  </g>
  <path d="M333.67,257.18s-17.02-5.73-29.62,5.43" fill="none" stroke="#231f20" stroke-miterlimit="10"/>
  <g>
    <path d="M352.54,395.17c-4.46-9.37-15.55-30.57-36.37-46.31,52.69-12.77,53-67.06,53-67.06,11.4,18.41-16.63,113.37-16.63,113.37Z" fill="none" stroke="#231f20" stroke-miterlimit="10"/>
    <path d="M309.2,347.8s-28.44,21.82-37.09,38.85c-13.43-33.53-30.47-96.34-30.47-96.34l67.56,57.48Z" fill="none" stroke="#231f20" stroke-miterlimit="10"/>
  </g>
  <g>
    <polygon points="338.31 371.41 318.86 390.38 302.24 386.66 286.62 367.93 306.14 347.88 316.16 348.87 338.31 371.41" fill="#ed1c24" stroke="#231f20" stroke-miterlimit="10"/>
    <path d="M299.86,383.8s-24.84,30.34-21.65,210.86h55.47s7.2-151.2-14.81-204.29l-19-6.58Z" fill="#ed1c24" stroke="#231f20" stroke-miterlimit="10"/>
  </g>
  <g>
    <path d="M579.86,594.67s37.49-204.67-9.82-225.54-151.75-43.19-151.75-43.19l-49.12-44.14" fill="none" stroke="#231f20" stroke-miterlimit="10"/>
    <path d="M236.19,281.8l-34.89,33.43s-145.43,25.12-165.96,32.65S1.26,546.51,0,594.67" fill="none" stroke="#231f20" stroke-miterlimit="10"/>
    <path d="M374.74,308.98s-7.5,219.67-36.43,285.69" fill="none" stroke="#231f20" stroke-miterlimit="10"/>
    <path d="M230.18,300.21s-.25,234.69,28.32,294.46" fill="none" stroke="#231f20" stroke-miterlimit="10"/>
  </g>
</svg>