<?xml version="1.0" encoding="UTF-8"?>
<svg id="Layer_2" data-name="Layer 2" xmlns="http://www.w3.org/2000/svg" viewBox="0 0 594.55 811.93">
  <ellipse cx="296.77" cy="281.16" rx="123.54" ry="153.7" fill="none" stroke="#231f20" stroke-miterlimit="10"/>
  <path d="M366.57,261.6c3.71-4.77-6.89,6.09-6.89,10.07s3.97,24.91,6.09,35.77,3.71,12.98,3.18,22.79-3.97,16.96-9.27,16.96-17.49,1.32-20.67-4.77-11.92-10.33-17.22-10.33-11.13-6.89-11.13-10.6,1.85-8.74,4.5-9.54,8.21-5.3,13.25-1.32" fill="none" stroke="#231f20" stroke-miterlimit="10"/>
  <path d="M356.57,376.13s-11.07-5.81-20.79-7.99-38.64-11.26-43.07-9.81-12.13,8.2-14.82,8.82" fill="none" stroke="#231f20" stroke-miterlimit="10"/>
  <path d="M356.57,379.23c1.19,2.54,6.66,20.36,4.72,24.49s-11.8,25.45-37.25,22.27-38.81-9.54-44.53-16.54-13.04-9.22-18.45-12.41-7.32-5.55-5.41-9.3" fill="none" stroke="#231f20" stroke-miterlimit="10"/>
  <path d="M367.33,344.89c1.95,7.26,3.33,7.63,1.73,19.98s-7.77,18.16-7.77,22.88" fill="none" stroke="#231f20" stroke-miterlimit="10"/>
  <path d="M307.53,316.56c-4.36,4-15.26,18.89-16.71,21.07s-8.06,10.9-12.93,13.08" fill="none" stroke="#231f20" stroke-miterlimit="10"/>
  <path d="M405.25,297.36s7.41-18.96,15.06-16.2,19.01,1.39,23.19-3.31,10.16-23.83,14.35-31.6,11.36-30.48,9.56-38.85,11.36-32.87,11.36-35.26-2.99-22.71-2.99-26.3-2.39,9.56-10.76,9.56-5.38-.64-5.38-10.18-2.39,17.36-8.97,23.93-11.36,20.92-14.35,17.33-5.38-14.94-5.98-22.71-3.59-1.2-5.38,1.2,7.41,12.55-4.66,10.76-6.69-19.72-6.69-24.51-6.57-9.48-8.37-8.03.07,2.65-9.23,2.65-21.25-.6-22.45-5.98-4.24-13.75-4.51-16.74,6.66,3.28-4.87,4.33-14.52-11.5-15.12-19.27,3.11-1.79-9.2,0-11.41,4.78-29.2,4.18-26.85-4.18-32.78,0-22.66,10.16-23.26,0,0-28.69-14.35-16.14-25.7,11.95-29.89,4.18-9.56-22.71-13.15-23.31-19.72,3.59-19.72,24.51-13.15,26.9-13.15,37.66-5.38,14.35-6.57,22.12-11.36,26.3-5.98,37.06,10.16,25.78,10.16,29.62-1.2,17,5.38,15.8,15.54-24.51,22.71-18.53,5.98,15.96,17.33,15.45,17.33-.51,24.51-2.9,7.17-29.89,11.95-29.89-12.55-1.2-9.56-10.76,6.57-5.98,11.95-12.55-7.77-14.35,1.2-22.71-1.2-20.32,25.7-23.91,44.92,1.74,54.99,0,21.34,3.78,25.6,6.68,6.01,14.24,7.54,14.24,26.48-1.79,30.74,7.17,15.95,20.92,16.08,28.09,3.12,33.47,3.12,43.63.27,20.13-3.12,29.47-14.81,35.69-2.86,30.01Z" fill="none" stroke="#231f20" stroke-miterlimit="10"/>
  <g>
    <path d="M367.37,267.96c-1-7.98,18.81-1.85,25.44-1.06s9.8,2.65,11.92,9.8,5.83,15.37,1.06,15.1-7.15-5.3-12.19-6.89-13.51-3.97-17.49-7.95-7.95-2.65-8.74-9.01Z" fill="none" stroke="#231f20" stroke-miterlimit="10"/>
    <path d="M334.51,249.94c-2.41-3.54-9.54-12.45-12.98-13.25s-6.62-7.68-10.86-7.68-6.36-2.12-12.19,0-5.56,8.74-10.07,8.74-13.51,6.09-15.9,8.48-5.56,3.97-5.3,5.3,6.36-3.71,17.75-3.71,23.58,3.44,28.62,2.65,11.92-.09,15.37,1.28,9.45,3.91,5.56-1.81Z" fill="none" stroke="#231f20" stroke-miterlimit="10"/>
  </g>
  <path d="M201.51,253.51c-3.08-4.6-10.99-20.6-22.76-17.9s-11.77,12.96-10.75,22.87,3.76,32.29,8.21,38.89,10.6,18.22,14.02,21.3,12.31,4,12.31-2.1,1.71-10.89,1.71-10.89" fill="none" stroke="#231f20" stroke-miterlimit="10"/>
  <g>
    <path d="M364.19,282.53c5.83-1.32,6.89-2.65,13.51,0s15.63,5.83,16.69,7.68.22,6.72,1.63,7.15" fill="none" stroke="#231f20" stroke-miterlimit="10"/>
    <path d="M364.19,284.4s9.8,3.18,13.15,4.78,6.37,2.69,9.4,2.63,2.81-.06,5.29-2" fill="none" stroke="#231f20" stroke-miterlimit="10"/>
    <path d="M320.28,270.72c-6.45-5.44-13.47-13.25-18.8-13.25s-11.78.78-17.9,2.94-8.49,6.19-12.91,3.49-12.57-7.79-12.57-7.79" fill="none" stroke="#231f20" stroke-miterlimit="10"/>
    <path d="M316.05,270.72s-.85,3.24-9.37,2.04-15.67-4.94-19.93-6.64-7.67-4.43-8.86-4.43" fill="none" stroke="#231f20" stroke-miterlimit="10"/>
    <path d="M383.73,286.46s.73,1.24-6.39,2.72c-5.13-2.03-15.92-5.14-15.98-5.53s11.06-4.64,22.38,2.81Z" fill="none" stroke="#231f20" stroke-miterlimit="10"/>
    <path d="M304.96,261.69c0,4.52-3.67,8.19-8.19,8.19s-8.19-3.67-8.19-8.19c0-2.2,3.67-1.01,8.19-1.01s8.19-.27,8.19,1.01Z" fill="none" stroke="#231f20" stroke-miterlimit="10"/>
  </g>
</svg>