<?xml version="1.0" encoding="UTF-8"?>
<svg id="Layer_2" data-name="Layer 2" xmlns="http://www.w3.org/2000/svg" viewBox="0 0 595.34 595.89">
  <g>
    <circle cx="267.76" cy="232.1" r="37.54" fill="none" stroke="#231f20" stroke-miterlimit="10"/>
    <circle cx="387.79" cy="230.36" r="37.54" fill="none" stroke="#231f20" stroke-miterlimit="10"/>
    <path d="M350.26,227.51h-4.52s-8.49-4.76-16.98-4.76-19.46,6.21-19.46,6.21h-4.01" fill="none" stroke="#231f20" stroke-miterlimit="10"/>
    <polyline points="425.33 230.36 437.16 230.36 451.38 222.74" fill="none" stroke="#231f20" stroke-miterlimit="10"/>
    <polyline points="230.22 232.1 217.87 232.1 211.51 222.74" fill="none" stroke="#231f20" stroke-miterlimit="10"/>
  </g>
  <path d="M334.76,158.3s-4.52,29.02,6.41,41.46" fill="none" stroke="#231f20" stroke-miterlimit="10"/>
  <path d="M316.3,161.69s3.01,27.31,0,32.87" fill="none" stroke="#231f20" stroke-miterlimit="10"/>
  <g>
    <path d="M343.58,201.5s3.42-6.44,19.03-6.94,49.86,1.9,54.04,3.47,8.67,8.04,8.67,8.04l7.31-1.9s-10.66-22.45-44.53-22.07c-16.75-12.56-27.02-9.94-27.78-3.06-12.94-4.17-25.56,5.16-25.56,5.16l8.81,17.32Z" fill="none" stroke="#231f20" stroke-miterlimit="10"/>
    <path d="M307.42,194.56s-14.08-22.12-37.3-21.29c-23.22,3.11-38.06,10.17-44.53,10.63-2.66,3.13-4.73,13.41-4.73,13.41,0,0,16.11,1.14,26.05,0s14.84-5.16,22.84-4.48,19.41,5.5,25.5,4.99,12.18-3.26,12.18-3.26Z" fill="none" stroke="#231f20" stroke-miterlimit="10"/>
  </g>
  <g>
    <g>
      <path d="M296.62,223.76s-17.1-12.76-30.11-13.01-24.81,11.99-24.81,11.99" fill="none" stroke="#231f20" stroke-miterlimit="10"/>
      <path d="M294.21,223.76s-40.94,5.86-46.48-3.33" fill="none" stroke="#231f20" stroke-miterlimit="10"/>
      <path d="M288.91,212.2s-28.9-12.52-48.65,6.98" fill="none" stroke="#231f20" stroke-miterlimit="10"/>
      <path d="M275.46,212.77c.1.59.15,1.19.15,1.81,0,6.09-4.94,11.03-11.03,11.03s-11.03-4.94-11.03-11.03c0-.15,0-.3,0-.45" fill="none" stroke="#231f20" stroke-miterlimit="10"/>
    </g>
    <g>
      <path d="M360.2,221.35h4.09s28.9-21.34,49.13,6.07" fill="none" stroke="#231f20" stroke-miterlimit="10"/>
      <path d="M404.51,225.85s-12.76-23.15-37.33-3.11" fill="none" stroke="#231f20" stroke-miterlimit="10"/>
      <path d="M360.2,223.76h10.84s9.87,11.13,32.27,2.79" fill="none" stroke="#231f20" stroke-miterlimit="10"/>
      <path d="M397.52,218.33c.02.28.04.57.04.86,0,5.4-4.37,9.77-9.77,9.77s-9.77-4.37-9.77-9.77c0-1.12.19-2.2.54-3.2" fill="none" stroke="#231f20" stroke-miterlimit="10"/>
    </g>
  </g>
  <path d="M367.18,233.32s16.67,13.55,39.47,3.08" fill="none" stroke="#231f20" stroke-miterlimit="10"/>
  <path d="M240.26,229.65s14.29,8.3,35.35,2.45" fill="none" stroke="#231f20" stroke-miterlimit="10"/>
  <g>
    <path d="M316.3,230.36s-23.72,33.28-16.27,48.52" fill="none" stroke="#231f20" stroke-miterlimit="10"/>
    <path d="M343.97,233.32s17.37,45.21,10.99,48.75" fill="none" stroke="#231f20" stroke-miterlimit="10"/>
    <path d="M297.67,282.08s-17.5,31.54,5.9,31.19" fill="none" stroke="#231f20" stroke-miterlimit="10"/>
    <path d="M350.26,314.68s21.34-3.19,6.11-30.12" fill="none" stroke="#231f20" stroke-miterlimit="10"/>
    <path d="M341.17,309.01s12.37,4.96,13.79,0-7.26-9.06-17.45,2.21-20.11,5.39-23.3,0-10.37-14.54-15.62-10.02,2.02,13.75,11.05,6.48" fill="none" stroke="#231f20" stroke-miterlimit="10"/>
    <path d="M350.17,272.2s-11.84,3.34-12.66,18.61" fill="none" stroke="#231f20" stroke-miterlimit="10"/>
    <path d="M303.57,272.2s11.43,1.43,12.73,18.61" fill="none" stroke="#231f20" stroke-miterlimit="10"/>
  </g>
  <g>
    <path d="M363.72,360.92s-21.91-4.72-32.69-2.7-17.54-.67-23.6-2.02-12.8,3.71-20.88,4.72" fill="none" stroke="#231f20" stroke-miterlimit="10"/>
    <path d="M296.62,364.63s30.49,20.22,59.75,0" fill="none" stroke="#231f20" stroke-miterlimit="10"/>
  </g>
  <g>
    <path d="M451.38,297.95c-2.48,11.45-48.61,37.32-57.9,37.32s-20.9-11.03-33.28-15.1-28.84,2.32-28.84,2.32c-20.32-9.87-30.59-4.06-39.97.58s-23.63,1.16-23.63,1.16l-11.88,11.03s-4.29-17.62-20.09-22c-13.54-3.75-17.77-6.25-29.84-51.15" fill="none" stroke="#231f20" stroke-miterlimit="10"/>
    <path d="M381.75,363.32c-33.87-3.66-42.07-16.32-42.07-16.32l-13.19,4-10.19-4s-18.59,10.25-33.57,11.46" fill="none" stroke="#231f20" stroke-miterlimit="10"/>
    <path d="M199.49,278.89s8.42,193.36,118.15,189.18,131.18-61.36,137.97-157.04" fill="none" stroke="#231f20" stroke-miterlimit="10"/>
    <path d="M279.42,364.63s-5.75,18.02-18.82,19.07" fill="none" stroke="#231f20" stroke-miterlimit="10"/>
    <path d="M307.42,325.66s-2.68,5.07-2.13,15.68" fill="none" stroke="#231f20" stroke-miterlimit="10"/>
    <path d="M332.24,325.66s5.16,9.41,5.26,15.68" fill="none" stroke="#231f20" stroke-miterlimit="10"/>
    <path d="M322.81,325.66s-7.82,6.11-8.26,19.14" fill="none" stroke="#231f20" stroke-miterlimit="10"/>
    <path d="M347.58,329.16s6.52,22.6,23.03,23.9" fill="none" stroke="#231f20" stroke-miterlimit="10"/>
    <path d="M368.88,335.27s13.04,22.48,28.69,23.18" fill="none" stroke="#231f20" stroke-miterlimit="10"/>
    <path d="M286.54,336.98s-10.65,23.98-21.96,26.33" fill="none" stroke="#231f20" stroke-miterlimit="10"/>
    <path d="M264.58,346.86s2.79,10.65-6.65,17.77" fill="none" stroke="#231f20" stroke-miterlimit="10"/>
    <path d="M243.28,335.23s-13.96,14.7-13.06,23.21" fill="none" stroke="#231f20" stroke-miterlimit="10"/>
    <path d="M406.65,336.98s28.28,8.6,28.28,21.47" fill="none" stroke="#231f20" stroke-miterlimit="10"/>
    <path d="M406.65,355.15s27.17,6.6,25.99,28.54" fill="none" stroke="#231f20" stroke-miterlimit="10"/>
    <path d="M397.56,369.43s7.82,21.01,11.3,25.35" fill="none" stroke="#231f20" stroke-miterlimit="10"/>
    <path d="M374.53,382.1s14.78.07,14.78,12.68" fill="none" stroke="#231f20" stroke-miterlimit="10"/>
    <path d="M332.24,378.27s-1.34,16.95,5.26,20.42" fill="none" stroke="#231f20" stroke-miterlimit="10"/>
    <path d="M320.2,378.27s1.3,13.47-5.65,20.42" fill="none" stroke="#231f20" stroke-miterlimit="10"/>
    <path d="M325.96,398.69s4.67,36.94,21.62,45.2" fill="none" stroke="#231f20" stroke-miterlimit="10"/>
    <line x1="275.56" y1="416.08" x2="264.97" y2="433.46" fill="none" stroke="#231f20" stroke-miterlimit="10"/>
    <path d="M361.85,394.78s8.36,36.07,25.95,35.63" fill="none" stroke="#231f20" stroke-miterlimit="10"/>
    <line x1="286.54" y1="385.61" x2="270.26" y2="409.35" fill="none" stroke="#231f20" stroke-miterlimit="10"/>
    <path d="M297.48,394.78s-18.42,21.4-27.21,21.29" fill="none" stroke="#231f20" stroke-miterlimit="10"/>
    <line x1="309.93" y1="416.08" x2="291.39" y2="430.42" fill="none" stroke="#231f20" stroke-miterlimit="10"/>
    <path d="M247.72,358.45s-4.41,11.92-4.44,19.82" fill="none" stroke="#231f20" stroke-miterlimit="10"/>
  </g>
  <g>
    <path d="M359.1,53.3s35.56,12.56,38.46,27.21" fill="none" stroke="#231f20" stroke-miterlimit="10"/>
    <path d="M374.53,53.3s10.55,47.33,23.04,59.64,40.53,37.63,48.06,53.36,22.93,93.76,15.73,127.93-36.43,96.83-26.42,115.12,16.45,28.55,16.45,28.55" fill="none" stroke="#231f20" stroke-miterlimit="10"/>
    <path d="M355.11,58.89s-49.49-5.35-60.9,21.61-46.18,63.57-64.03,81.18-31.34,74.59-30.7,100.42,13.93,97.68,12.02,107.31-32.01,141.67-80.58,138.93c-20.78.04-30.1-12.31-30.1-12.31" fill="none" stroke="#231f20" stroke-miterlimit="10"/>
    <path d="M83.95,230.36c4.42-1.25,33.85-25.24,53.72-72.07S208.31,40.3,260.59,15.28s71.53-3.68,71.53-3.68c0,0,71.01-56.19,131.09,74.58s145.58,282.91,62.6,389.78" fill="none" stroke="#231f20" stroke-miterlimit="10"/>
    <path d="M142.82,158.3s-25.84,54.26-65.49,97.38c-43.42,47.23-50.77,71.66-52.98,97.38" fill="none" stroke="#231f20" stroke-miterlimit="10"/>
    <path d="M523.3,457.1s-20.12,22.63-20.12,33.95,21.38,20.88,62.87,17.35" fill="none" stroke="#231f20" stroke-miterlimit="10"/>
    <path d="M432.64,457.1s-62.73,115.68,61.75,124.48" fill="none" stroke="#231f20" stroke-miterlimit="10"/>
    <path d="M420.79,475.96s-45.3,66.15-14.14,93.04" fill="none" stroke="#231f20" stroke-miterlimit="10"/>
    <path d="M172.58,373.51s-11.73,96.33,16.24,148.97-41.49,69.78-42.39,35.5" fill="none" stroke="#231f20" stroke-miterlimit="10"/>
    <path d="M151.84,383.7s-62.84,184.21-107.34,68.75" fill="none" stroke="#231f20" stroke-miterlimit="10"/>
    <path d="M187.02,173.27s-49.61,99.89-71.26,108.81-52.32,49.12-62.24,76.37-29.18,15.06-29.18,15.06" fill="none" stroke="#231f20" stroke-miterlimit="10"/>
    <path d="M118.46,290.81s13.53,110.9-82.98,114.62" fill="none" stroke="#231f20" stroke-miterlimit="10"/>
    <path d="M130.19,355.15s-24.35,74.15-94.71,60.92" fill="none" stroke="#231f20" stroke-miterlimit="10"/>
    <path d="M494.38,457.1s-35.87,56.69,22.76,56.69" fill="none" stroke="#231f20" stroke-miterlimit="10"/>
    <path d="M425.33,494.84s10.64,89.68,61.15,80.92,30.67-34.01,30.67-34.01" fill="none" stroke="#231f20" stroke-miterlimit="10"/>
  </g>
</svg>