<?xml version="1.0" encoding="UTF-8"?>
<svg id="Layer_2" data-name="Layer 2" xmlns="http://www.w3.org/2000/svg" viewBox="0 0 459.75 690">
  <g>
    <path d="M116.34,283.74s-2.91-3.9-5.41-16.38-2.33-73.49-1.27-81.97,12.19-16.97,9.54-26.51-7.95-23.86,4.77-45.07c11.13-47.72,40.3-61.5,40.3-61.5" fill="none" stroke="#231f20" stroke-miterlimit="10"/>
    <path d="M117.23,272.39s-8.7,40.32,44.38,49.6" fill="none" stroke="#231f20" stroke-miterlimit="10"/>
  </g>
  <g>
    <path d="M152.91,316.18s4.93,5.8,36.26,5.8" fill="none" stroke="#231f20" stroke-miterlimit="10"/>
    <path d="M290.27,232.87s-1.28,55.58-34.5,61.33c-17.14,2.97-43.47,5.25-66.61,6.86" fill="none" stroke="#231f20" stroke-miterlimit="10"/>
    <path d="M191.99,288.71s-8.88,25.7-52.83,19.7" fill="none" stroke="#231f20" stroke-miterlimit="10"/>
  </g>
  <g>
    <path d="M155.78,133.34s-1.81,6.71,0,9.55c0,0-21.43,32.27-23.75,36.66s-3.1,9.55,11.88,17.55" fill="none" stroke="#231f20" stroke-miterlimit="10"/>
    <path d="M171.78,200.2s14.71,1.55,3.87-15.75" fill="none" stroke="#231f20" stroke-miterlimit="10"/>
    <path d="M152.94,196.07l-4.65-3.36s11.88-5.42,19.88,3.36" fill="none" stroke="#231f20" stroke-miterlimit="10"/>
    <path d="M133.44,188.44s-4.38,7.25,5.34,13.27" fill="none" stroke="#231f20" stroke-miterlimit="10"/>
    <path d="M135.61,192.34s.12,3.64,4.91,5.83" fill="none" stroke="#231f20" stroke-miterlimit="10"/>
    <path d="M175.71,143.36s-15.17,7.17-15.78,21.86" fill="none" stroke="#231f20" stroke-miterlimit="10"/>
    <path d="M169.98,154.29s-5.67,9.5,0,19.83" fill="none" stroke="#231f20" stroke-miterlimit="10"/>
  </g>
  <g>
    <path d="M155.78,131.13s-7.53-19.75-31.8-17.33l-4.74,9.48,3.9,2.52s20.24,3.73,28.22,5.33,4.42,0,4.42,0Z" fill="none" stroke="#231f20" stroke-miterlimit="10"/>
    <path d="M177.72,131.84s2.13-18.28,38.61-14.29,43.13,28.49,43.13,28.49c0,0-24.5-18.9-42.87-17.84s-17.31,2.22-22.37,3.64-14.64,1.24-16.51,0Z" fill="none" stroke="#231f20" stroke-miterlimit="10"/>
  </g>
  <path d="M164.27,348.11s7.08,32.63,24.89,18.1" fill="none" stroke="#231f20" stroke-miterlimit="10"/>
  <path d="M270.83,192.34s-1.06,25.24-28.19,25.24" fill="none" stroke="#231f20" stroke-miterlimit="10"/>
  <g>
    <path d="M190.32,238.72s-1.62,2.93-13.75,2.93-24.67,1.21-30.12,1.21-12.13-1.21-19.41-.81" fill="none" stroke="#231f20" stroke-miterlimit="10"/>
    <path d="M189.16,235.38s-16.36-16.76-42.47-14.65c-9.35-.76-15.2-1.93-19.64,16.47" fill="none" stroke="#231f20" stroke-miterlimit="10"/>
    <path d="M182.7,242.87s-28.85,10.53-44.62,10.53-11.04-8.85-11.04-8.85" fill="none" stroke="#231f20" stroke-miterlimit="10"/>
    <path d="M192.5,238.22l-3.34.5s-16.8-13.04-32.59-11.63-13.32-.11-13.32-.11c0,0-6.71,4.76-9.54,9.61" fill="none" stroke="#231f20" stroke-miterlimit="10"/>
  </g>
  <g>
    <g>
      <path d="M198.49,143.36s14.91-6.92,36.21,10.93" fill="none" stroke="#231f20" stroke-miterlimit="10"/>
      <path d="M202.48,143.36s-8.21,8.01-10.49,9.34" fill="none" stroke="#231f20" stroke-miterlimit="10"/>
      <path d="M195.16,152.7l5.03-1.33s13.89,3.03,30.45,2.92" fill="none" stroke="#231f20" stroke-miterlimit="10"/>
      <path d="M198.49,141.34s14.67-7.03,40.49,10.03" fill="none" stroke="#231f20" stroke-miterlimit="10"/>
      <path d="M217.9,144.2c.09.46.14.94.14,1.43,0,4.02-3.26,7.28-7.28,7.28s-7.28-3.26-7.28-7.28c0-1.23.3-2.39.84-3.4" fill="none" stroke="#231f20" stroke-miterlimit="10"/>
    </g>
    <g>
      <path d="M151.85,146.79s-6.76-9.75-16.24-8.57-10.22,9.95-10.22,9.95" fill="none" stroke="#231f20" stroke-miterlimit="10"/>
      <path d="M150.17,151.37s-18.86,2.18-24.18,1.46" fill="none" stroke="#231f20" stroke-miterlimit="10"/>
      <path d="M153.33,140.14s-13.45-9.61-27.34-3.4" fill="none" stroke="#231f20" stroke-miterlimit="10"/>
      <path d="M140.73,138.6c1.85,1.26,3.07,3.38,3.07,5.79,0,3.86-3.13,6.99-6.99,6.99s-6.99-3.13-6.99-6.99c0-2.14.96-4.06,2.48-5.34" fill="none" stroke="#231f20" stroke-miterlimit="10"/>
    </g>
  </g>
  <g>
    <path d="M148.29,316.18s-7.36,54.15,0,100.06" fill="none" stroke="#231f20" stroke-miterlimit="10"/>
    <path d="M318.21,272.39s-3.72,43.96,0,58.23,20.48,40.95,30.4,50.26" fill="none" stroke="#231f20" stroke-miterlimit="10"/>
  </g>
  <path d="M136.81,232.61v8.19s11.65,1.95,52.35-2.07" fill="none" stroke="#231f20" stroke-miterlimit="10"/>
  <g>
    <path d="M164.27,52.3s7.53,5.24,18.43,7.44,55.14-5.19,89.3,17.18c0,0-4.7,25.07-12.55,31.7,7.88,7.62,28.67,20.93,30.81,28.77s9.51,57.49,6.81,72.48" fill="none" stroke="#231f20" stroke-miterlimit="10"/>
    <path d="M161.61,52.3s-7.97-35.15,65.8-26.81,100.12,27.66,126.91,56.65,22.2,136.35-36.1,190.25" fill="none" stroke="#231f20" stroke-miterlimit="10"/>
    <path d="M339,231.12s-.7,2.23-5.91,6.08c-1.51,10.93-12.17,25.92-13.79,34.17" fill="none" stroke="#231f20" stroke-miterlimit="10"/>
  </g>
  <g>
    <path d="M324.17,201.71s10.43-26.84,19.44-27.59,16.36,9.21,16.36,12.29.95,15.65-5.69,22.05" fill="none" stroke="#231f20" stroke-miterlimit="10"/>
    <line x1="333.09" y1="178.73" x2="323.24" y2="184.45" fill="none" stroke="#231f20" stroke-miterlimit="10"/>
    <path d="M325.35,185.76s-1.71,4.16-4.76,4.16-6.03,5.34-6.03,5.34" fill="none" stroke="#231f20" stroke-miterlimit="10"/>
    <path d="M313.96,227.96s-.88,2.49-1.03,3.96" fill="none" stroke="#231f20" stroke-miterlimit="10"/>
    <path d="M312.94,220.39s-8.45,3.89-11.38,12.47" fill="none" stroke="#231f20" stroke-miterlimit="10"/>
    <path d="M319.95,195.26s3.27,15.84-2.48,17.21" fill="none" stroke="#231f20" stroke-miterlimit="10"/>
    <path d="M297.07,209.87c9.34-23.59,17.2-30.23,17.2-30.23,0,0,14.15-7.69,19.72-8.88s11.94-1.2,19.16.54,15.61,23.94,4.05,40.58-14.45,17.22-18.21,19.24-17.34,4.51-24.56,7.6-11.85.38-13.87,0" fill="none" stroke="#231f20" stroke-miterlimit="10"/>
    <path d="M348.61,190.51s7.1,27.61-16.03,31.94" fill="none" stroke="#231f20" stroke-miterlimit="10"/>
    <path d="M353.03,191.27s-5.01-15.58-14.03-4.41" fill="none" stroke="#231f20" stroke-miterlimit="10"/>
  </g>
  <g>
    <path d="M342.1,369.94c8.71-.66,20.83,21.98,33.29,24.32,6.15,1.16,7.35.11,13.87,7.56s14.43-3.94,41.52,27.06c12.67,10.2,28.96,22.31,28.96,22.31" fill="none" stroke="#231f20" stroke-miterlimit="10"/>
    <path d="M346.16,373.69c-2.47-2.26-4.06-3.75-4.06-3.75,0,0,8.71,8.73,8.71,13.97,0,0-3.73,23.8-27.57,41.41s-60.15,53.31-66.51,64.26c-11.12,10.47-29.21,20.47-29.21,20.47,0,0-24.34,3.52-40.46-2.38-12.58-8.26-19.6-19.27-19.6-19.27,0,0-7.29-29.19-10.15-34.54-4.4-8.23-1.32-12.26-6.43-23.67s-6.48-16.52-4.22-24.78c0,0-5.49,2.25-8.59,5.14s-20.97,5.86-57.87,27.67c-1.26.74-2.53,1.51-3.83,2.29" fill="none" stroke="#231f20" stroke-miterlimit="10"/>
    <path d="M80.81,439.35s-18.01,3.22-39.45,15.22-21.27,16.01-41.36,26.29" fill="none" stroke="#231f20" stroke-miterlimit="10"/>
  </g>
  <path d="M190.32,202.9c.15.79-.79,1.61,1.66,2.15" fill="none" stroke="#231f20" stroke-miterlimit="10"/>
</svg>